<svg xmlns="http://www.w3.org/2000/svg" viewBox="0 0 100 100" width="100%" height="100%">
  <g transform="translate(50, 45)">
    <!-- Petal 1 (Top) -->
    <path d="M 0 0 C -20 -35 -15 -42 0 -44 C 15 -42 20 -35 0 0 Z" fill="#C03967"/>
    <!-- Petal 2 (Top Right) -->
    <path d="M 0 0 C 25 -25 35 -15 36 2 C 32 18 18 20 0 0 Z" fill="#B5305E"/>
    <!-- Petal 3 (Bottom Right) -->
    <path d="M 0 0 C 30 15 32 30 18 38 C 2 40 -8 28 0 0 Z" fill="#C03967"/>
    <!-- Petal 4 (Bottom Left) -->
    <path d="M 0 0 C -30 15 -32 30 -18 38 C -2 40 8 28 0 0 Z" fill="#A82852"/>
    <!-- Petal 5 (Top Left) -->
    <path d="M 0 0 C -25 -25 -35 -15 -36 2 C -32 18 -18 20 0 0 Z" fill="#C03967"/>
    
    <!-- Stamen / Center Pistil -->
    <path d="M 0 0 Q 8 -22 18 -32" stroke="#F3C649" stroke-width="3" stroke-linecap="round" fill="none"/>
    <circle cx="18" cy="-32" r="3" fill="#F3C649"/>
    <circle cx="15" cy="-28" r="2" fill="#F3C649"/>
    <circle cx="20" cy="-26" r="2" fill="#F3C649"/>
    <!-- Flower Center -->
    <circle cx="0" cy="0" r="5" fill="#881B3E"/>
  </g>
</svg>